STARTFONT 2.1
COMMENT  
COMMENT  (c) Copyright 1994 by Star Division GmbH
COMMENT  
COMMENT  WARNING:  This bdf file was generated from a font server using
COMMENT  fstobdf.  The resulting font is subject to the same copyright,
COMMENT  license, and trademark restrictions as the original font.  The
COMMENT  authors and distributors of fstobdf disclaim all liability for
COMMENT  misuse of the program or its output.
COMMENT  
FONT -Star Division-starmath-medium-r-normal--18-170-75-75-p-0-iso8859-1
SIZE 17 75 75
FONTBOUNDINGBOX 33 23 -3 -7
STARTPROPERTIES 54
FONT "-Star Division-starmath-medium-r-normal--18-170-75-75-p-0-iso8859-1"
FONT_TYPE "TrueType"
TECHNOLOGY "TrueType"
FOUNDRY ""
FAMILY_NAME "starmath"
WEIGHT_NAME "medium"
SLANT "r"
SETWIDTH_NAME "normal"
ADD_STYLE_NAME ""
PIXEL_SIZE 17
POINT_SIZE 170
RESOLUTION_X 75
RESOLUTION_Y 75
SPACING "p"
AVERAGE_WIDTH 100
CHARSET_REGISTRY "iso8859"
CHARSET_ENCODING "1"
AVG_LOWERCASE_WIDTH 9
RAW_AVG_LOWERCASE_WIDTH 500
SUBSCRIPT_X 0
SUBSCRIPT_Y 8
SUBSCRIPT_SIZE 9
RAW_SUBSCRIPT_X 0
RAW_SUBSCRIPT_Y 499
RAW_SUBSCRIPT_SIZE 500
SUPERSCRIPT_X 0
SUPERSCRIPT_Y 4
SUPERSCRIPT_SIZE 9
RAW_SUPERSCRIPT_X 0
RAW_SUPERSCRIPT_Y 250
RAW_SUPERSCRIPT_SIZE 500
STRIKEOUT_ASCENT 5
STRIKEOUT_DESCENT -3
RAW_STRIKEOUT_ASCENT 299
RAW_STRIKEOUT_DESCENT -249
RELATIVE_SETWIDTH 50
RELATIVE_WEIGHT 40
_GALLIUM_PANOSE "5 11 5 0 0 0 0 0 0 0"
UNDERLINE_POSITION 1
UNDERLINE_THICKNESS 1
RAW_UNDERLINE_POSITION 99
RAW_UNDERLINE_THICKNESS 50
ITALIC_ANGLE 0
RAW_PIXEL_SIZE 1000
RAW_POINT_SIZE 9636
FONT_ASCENT 15
FONT_DESCENT 6
RAW_ASCENT 863
RAW_DESCENT 325
RAW_AVERAGE_WIDTH 6260
COPYRIGHT "(c) Copyright 1994 by Star Division GmbH"
FACE_NAME "StarMath"
NOTICE "Created by Type-Designer 2.5"
DEFAULT_CHAR 0
ENDPROPERTIES
CHARS 223
STARTCHAR exclam
ENCODING 33
SWIDTH 282 0
DWIDTH 5 0
BBX 2 13 2 0
ATTRIBUTES 0115
BITMAP
c0
c0
c0
c0
c0
c0
c0
c0
c0
c0
00
c0
c0
ENDCHAR
STARTCHAR quotedbl
ENCODING 34
SWIDTH 338 0
DWIDTH 6 0
BBX 5 5 1 8
ATTRIBUTES 0162
BITMAP
d8
d8
d8
d8
d8
ENDCHAR
STARTCHAR numbersign
ENCODING 35
SWIDTH 564 0
DWIDTH 10 0
BBX 10 13 0 0
ATTRIBUTES 022b
BITMAP
0880
1880
1180
1180
ffc0
3100
3300
2300
ffc0
6200
6200
4600
4400
ENDCHAR
STARTCHAR dollar
ENCODING 36
SWIDTH 960 0
DWIDTH 17 0
BBX 17 13 0 0
ATTRIBUTES 03c0
BITMAP
008000
708000
890000
890000
8a0000
8a0000
740000
04c700
092880
092880
092880
112880
10c700
ENDCHAR
STARTCHAR percent
ENCODING 37
SWIDTH 847 0
DWIDTH 15 0
BBX 14 12 0 0
ATTRIBUTES 0340
BITMAP
7020
8820
8840
8880
8880
7100
0238
0244
0444
0844
1044
1038
ENDCHAR
STARTCHAR ampersand
ENCODING 38
SWIDTH 790 0
DWIDTH 14 0
BBX 13 12 0 0
ATTRIBUTES 0309
BITMAP
0e00
1900
1100
1a00
1cf0
1c40
2c80
4680
c380
c308
e7d0
38e0
ENDCHAR
STARTCHAR apostrophe
ENCODING 39
SWIDTH 734 0
DWIDTH 13 0
BBX 12 7 0 1
ATTRIBUTES 02c8
BITMAP
33e0
4a30
8410
8410
8610
5a20
21c0
ENDCHAR
STARTCHAR parenleft
ENCODING 40
SWIDTH 338 0
DWIDTH 6 0
BBX 4 20 1 -4
ATTRIBUTES 0153
BITMAP
00
20
20
40
40
40
80
80
80
80
80
80
80
80
40
40
40
20
20
20
ENDCHAR
STARTCHAR parenright
ENCODING 41
SWIDTH 338 0
DWIDTH 6 0
BBX 4 20 1 -4
ATTRIBUTES 0153
BITMAP
00
40
40
20
20
20
10
10
10
10
10
10
10
10
10
20
20
20
40
40
ENDCHAR
STARTCHAR asterisk
ENCODING 42
SWIDTH 395 0
DWIDTH 7 0
BBX 6 5 0 8
ATTRIBUTES 0185
BITMAP
30
a4
fc
30
48
ENDCHAR
STARTCHAR plus
ENCODING 43
SWIDTH 564 0
DWIDTH 10 0
BBX 9 9 1 2
ATTRIBUTES 0247
BITMAP
1800
1800
1800
1800
ff80
1800
1800
1800
1800
ENDCHAR
STARTCHAR comma
ENCODING 44
SWIDTH 282 0
DWIDTH 5 0
BBX 2 5 2 -3
ATTRIBUTES 0115
BITMAP
c0
c0
40
c0
80
ENDCHAR
STARTCHAR minus
ENCODING 45
SWIDTH 338 0
DWIDTH 6 0
BBX 5 2 1 4
ATTRIBUTES 014c
BITMAP
f8
f8
ENDCHAR
STARTCHAR period
ENCODING 46
SWIDTH 282 0
DWIDTH 5 0
BBX 2 2 2 0
ATTRIBUTES 0115
BITMAP
c0
c0
ENDCHAR
STARTCHAR slash
ENCODING 47
SWIDTH 282 0
DWIDTH 5 0
BBX 5 13 0 0
ATTRIBUTES 0115
BITMAP
08
10
10
10
30
20
20
20
60
40
40
c0
80
ENDCHAR
STARTCHAR 0
ENCODING 48
SWIDTH 564 0
DWIDTH 10 0
BBX 8 13 1 0
ATTRIBUTES 022b
BITMAP
1c
66
66
c3
c3
c3
c3
c3
c3
c3
66
66
38
ENDCHAR
STARTCHAR 1
ENCODING 49
SWIDTH 564 0
DWIDTH 10 0
BBX 5 13 2 0
ATTRIBUTES 022b
BITMAP
18
38
78
d8
98
18
18
18
18
18
18
18
18
ENDCHAR
STARTCHAR 2
ENCODING 50
SWIDTH 564 0
DWIDTH 10 0
BBX 9 13 0 0
ATTRIBUTES 022b
BITMAP
1e00
3300
6180
6180
0180
0300
0600
0c00
1800
3000
4000
7f80
ff80
ENDCHAR
STARTCHAR 3
ENCODING 51
SWIDTH 564 0
DWIDTH 10 0
BBX 8 13 1 0
ATTRIBUTES 022b
BITMAP
3c
66
c3
43
02
04
1e
07
03
81
c3
66
3c
ENDCHAR
STARTCHAR 4
ENCODING 52
SWIDTH 564 0
DWIDTH 10 0
BBX 10 13 0 0
ATTRIBUTES 022b
BITMAP
0300
0700
0700
0b00
1b00
1300
3300
6300
4300
ffc0
0300
0300
0300
ENDCHAR
STARTCHAR 5
ENCODING 53
SWIDTH 564 0
DWIDTH 10 0
BBX 8 13 1 0
ATTRIBUTES 022b
BITMAP
7f
7f
40
40
c0
fc
c6
03
03
83
c7
66
3c
ENDCHAR
STARTCHAR 6
ENCODING 54
SWIDTH 564 0
DWIDTH 10 0
BBX 8 13 1 0
ATTRIBUTES 022b
BITMAP
38
66
43
c0
c0
dc
e7
c3
c3
c3
43
66
3c
ENDCHAR
STARTCHAR 7
ENCODING 55
SWIDTH 564 0
DWIDTH 10 0
BBX 8 13 1 0
ATTRIBUTES 022b
BITMAP
ff
ff
02
06
0c
08
18
10
10
30
30
20
20
ENDCHAR
STARTCHAR 8
ENCODING 56
SWIDTH 564 0
DWIDTH 10 0
BBX 8 13 1 0
ATTRIBUTES 022b
BITMAP
3c
66
42
43
42
24
7e
e7
c3
c1
c3
66
3c
ENDCHAR
STARTCHAR 9
ENCODING 57
SWIDTH 564 0
DWIDTH 10 0
BBX 8 13 1 0
ATTRIBUTES 022b
BITMAP
38
66
c2
c3
c3
c3
67
3b
03
03
c2
66
1c
ENDCHAR
STARTCHAR colon
ENCODING 58
SWIDTH 282 0
DWIDTH 5 0
BBX 2 9 2 0
ATTRIBUTES 0115
BITMAP
c0
c0
00
00
00
00
00
c0
c0
ENDCHAR
STARTCHAR semicolon
ENCODING 59
SWIDTH 282 0
DWIDTH 5 0
BBX 2 12 2 -3
ATTRIBUTES 0115
BITMAP
c0
c0
00
00
00
00
00
c0
c0
40
c0
80
ENDCHAR
STARTCHAR less
ENCODING 60
SWIDTH 564 0
DWIDTH 10 0
BBX 9 9 1 2
ATTRIBUTES 0247
BITMAP
0080
0380
1e00
7800
c000
f000
1e00
0780
0080
ENDCHAR
STARTCHAR equal
ENCODING 61
SWIDTH 790 0
DWIDTH 14 0
BBX 10 4 2 3
ATTRIBUTES 031a
BITMAP
ffc0
0000
0000
ffc0
ENDCHAR
STARTCHAR greater
ENCODING 62
SWIDTH 564 0
DWIDTH 10 0
BBX 9 9 1 2
ATTRIBUTES 0247
BITMAP
8000
e000
3c00
0f00
0180
0780
3c00
f000
8000
ENDCHAR
STARTCHAR question
ENCODING 63
SWIDTH 564 0
DWIDTH 10 0
BBX 8 13 1 0
ATTRIBUTES 022b
BITMAP
18
18
00
18
18
38
30
60
c0
c3
c3
66
3c
ENDCHAR
STARTCHAR at
ENCODING 64
SWIDTH 790 0
DWIDTH 14 0
BBX 10 10 2 0
ATTRIBUTES 031a
BITMAP
0100
0200
0200
ffc0
0400
0800
ffc0
1000
2000
2000
ENDCHAR
STARTCHAR A
ENCODING 65
SWIDTH 790 0
DWIDTH 14 0
BBX 11 11 2 0
ATTRIBUTES 031a
BITMAP
0400
0400
0400
0400
0400
ffe0
0400
0400
0400
0400
0400
ENDCHAR
STARTCHAR B
ENCODING 66
SWIDTH 790 0
DWIDTH 14 0
BBX 10 1 2 5
ATTRIBUTES 031a
BITMAP
ffc0
ENDCHAR
STARTCHAR C
ENCODING 67
SWIDTH 734 0
DWIDTH 13 0
BBX 7 8 3 1
ATTRIBUTES 02d3
BITMAP
10
92
d6
38
7c
d6
10
10
ENDCHAR
STARTCHAR D
ENCODING 68
SWIDTH 790 0
DWIDTH 14 0
BBX 10 10 2 0
ATTRIBUTES 031a
BITMAP
8040
4080
2100
1200
0c00
0c00
1200
2100
4080
8040
ENDCHAR
STARTCHAR E
ENCODING 69
SWIDTH 564 0
DWIDTH 10 0
BBX 2 2 4 4
ATTRIBUTES 0242
BITMAP
c0
c0
ENDCHAR
STARTCHAR F
ENCODING 70
SWIDTH 790 0
DWIDTH 14 0
BBX 10 9 2 1
ATTRIBUTES 031a
BITMAP
0c00
0c00
0000
0000
ffc0
0000
0000
0c00
0c00
ENDCHAR
STARTCHAR G
ENCODING 71
SWIDTH 790 0
DWIDTH 14 0
BBX 11 10 2 0
ATTRIBUTES 031a
BITMAP
0400
0400
0400
ffe0
0400
0400
0400
0000
0000
ffc0
ENDCHAR
STARTCHAR H
ENCODING 72
SWIDTH 790 0
DWIDTH 14 0
BBX 11 10 2 0
ATTRIBUTES 031a
BITMAP
ffc0
0000
0000
0400
0400
0400
ffe0
0400
0400
0400
ENDCHAR
STARTCHAR I
ENCODING 73
SWIDTH 790 0
DWIDTH 14 0
BBX 10 10 2 0
ATTRIBUTES 031a
BITMAP
3f00
6480
4440
8440
ffc0
8440
c440
4440
7580
1e00
ENDCHAR
STARTCHAR J
ENCODING 74
SWIDTH 790 0
DWIDTH 14 0
BBX 10 10 2 0
ATTRIBUTES 031a
BITMAP
1e00
6180
4040
8040
ffc0
8040
8040
4080
6180
1e00
ENDCHAR
STARTCHAR K
ENCODING 75
SWIDTH 790 0
DWIDTH 14 0
BBX 10 10 2 0
ATTRIBUTES 031a
BITMAP
1e00
6180
6180
9240
8c40
8c40
92c0
6180
7180
1e00
ENDCHAR
STARTCHAR L
ENCODING 76
SWIDTH 790 0
DWIDTH 14 0
BBX 10 10 2 0
ATTRIBUTES 031a
BITMAP
1e00
6180
4180
8240
8440
8840
9040
6080
6180
1e00
ENDCHAR
STARTCHAR M
ENCODING 77
SWIDTH 790 0
DWIDTH 14 0
BBX 10 10 2 0
ATTRIBUTES 031a
BITMAP
1e00
6180
4080
8040
8c40
8c40
8040
4080
6180
1e00
ENDCHAR
STARTCHAR N
ENCODING 78
SWIDTH 790 0
DWIDTH 14 0
BBX 10 11 2 0
ATTRIBUTES 031a
BITMAP
8040
8040
8040
8040
8040
8040
8040
8040
4080
2100
1e00
ENDCHAR
STARTCHAR O
ENCODING 79
SWIDTH 790 0
DWIDTH 14 0
BBX 10 10 2 0
ATTRIBUTES 031a
BITMAP
1e00
6180
4080
8040
8040
8040
8040
8040
8040
8040
ENDCHAR
STARTCHAR P
ENCODING 80
SWIDTH 790 0
DWIDTH 14 0
BBX 10 8 2 2
ATTRIBUTES 031a
BITMAP
00c0
0700
1800
6000
3000
0c00
0380
0040
ENDCHAR
STARTCHAR Q
ENCODING 81
SWIDTH 790 0
DWIDTH 14 0
BBX 10 8 2 2
ATTRIBUTES 031a
BITMAP
c000
3800
0600
0180
0300
1c00
6000
8000
ENDCHAR
STARTCHAR R
ENCODING 82
SWIDTH 790 0
DWIDTH 14 0
BBX 10 10 2 0
ATTRIBUTES 031a
BITMAP
00c0
0700
1800
6000
3000
0c00
0380
0040
0000
ffc0
ENDCHAR
STARTCHAR S
ENCODING 83
SWIDTH 790 0
DWIDTH 14 0
BBX 10 10 2 0
ATTRIBUTES 031a
BITMAP
c000
3800
0600
0180
0300
1c00
6000
8000
0000
ffc0
ENDCHAR
STARTCHAR T
ENCODING 84
SWIDTH 790 0
DWIDTH 14 0
BBX 10 11 2 0
ATTRIBUTES 031a
BITMAP
00c0
0300
0c00
7000
6000
1c00
8300
70c0
0c00
0380
0040
ENDCHAR
STARTCHAR U
ENCODING 85
SWIDTH 790 0
DWIDTH 14 0
BBX 10 11 2 0
ATTRIBUTES 031a
BITMAP
c000
3000
0c00
0380
0380
0c00
30c0
c300
0c00
7000
8000
ENDCHAR
STARTCHAR V
ENCODING 86
SWIDTH 1129 0
DWIDTH 20 0
BBX 16 10 2 0
ATTRIBUTES 045d
BITMAP
0043
018c
0630
18c0
6300
6180
1860
0618
0186
0041
ENDCHAR
STARTCHAR W
ENCODING 87
SWIDTH 1129 0
DWIDTH 20 0
BBX 16 10 2 0
ATTRIBUTES 045d
BITMAP
c200
3180
0c60
0318
00c6
0186
0618
1860
6180
8200
ENDCHAR
STARTCHAR X
ENCODING 88
SWIDTH 790 0
DWIDTH 14 0
BBX 10 3 2 5
ATTRIBUTES 031a
BITMAP
8380
8c40
7040
ENDCHAR
STARTCHAR Y
ENCODING 89
SWIDTH 790 0
DWIDTH 14 0
BBX 10 6 2 2
ATTRIBUTES 031a
BITMAP
8380
8c40
7040
0000
0000
ffc0
ENDCHAR
STARTCHAR Z
ENCODING 90
SWIDTH 790 0
DWIDTH 14 0
BBX 11 5 2 3
ATTRIBUTES 031a
BITMAP
41c0
4e20
b1a0
8e40
7040
ENDCHAR
STARTCHAR bracketleft
ENCODING 91
SWIDTH 790 0
DWIDTH 14 0
BBX 10 12 2 0
ATTRIBUTES 031a
BITMAP
1000
1080
77c0
9e80
9880
7680
0000
0000
ffc0
0000
0000
ffc0
ENDCHAR
STARTCHAR backslash
ENCODING 92
SWIDTH 790 0
DWIDTH 14 0
BBX 10 8 2 1
ATTRIBUTES 031a
BITMAP
ffc0
0000
0000
ffc0
0000
0000
0000
ffc0
ENDCHAR
STARTCHAR bracketright
ENCODING 93
SWIDTH 734 0
DWIDTH 13 0
BBX 11 7 0 1
ATTRIBUTES 02c8
BITMAP
33e0
4a00
8600
8400
8600
5900
21c0
ENDCHAR
STARTCHAR asciicircum
ENCODING 94
SWIDTH 508 0
DWIDTH 9 0
BBX 8 13 0 -1
ATTRIBUTES 01ee
BITMAP
1c
26
22
01
1f
31
21
61
c1
c2
c2
6c
30
ENDCHAR
STARTCHAR underscore
ENCODING 95
SWIDTH 790 0
DWIDTH 14 0
BBX 11 10 2 0
ATTRIBUTES 031a
BITMAP
1fe0
2000
4000
8000
8000
8000
8000
4000
2000
1fe0
ENDCHAR
STARTCHAR grave
ENCODING 96
SWIDTH 790 0
DWIDTH 14 0
BBX 11 10 1 0
ATTRIBUTES 031a
BITMAP
ff00
0080
0040
0020
0020
0020
0020
0040
0080
ff00
ENDCHAR
STARTCHAR a
ENCODING 97
SWIDTH 790 0
DWIDTH 14 0
BBX 10 10 2 0
ATTRIBUTES 031a
BITMAP
3fc0
4000
8000
8000
8000
4000
3fc0
0000
0000
ffc0
ENDCHAR
STARTCHAR b
ENCODING 98
SWIDTH 790 0
DWIDTH 14 0
BBX 10 10 2 0
ATTRIBUTES 031a
BITMAP
ff00
0080
0040
0040
0040
0080
ff00
0000
0000
ffc0
ENDCHAR
STARTCHAR c
ENCODING 99
SWIDTH 790 0
DWIDTH 14 0
BBX 10 13 2 -1
ATTRIBUTES 031a
BITMAP
0080
0080
1fc0
6100
4200
8200
8400
8400
8800
5000
5000
3fc0
4000
ENDCHAR
STARTCHAR d
ENCODING 100
SWIDTH 790 0
DWIDTH 14 0
BBX 10 12 2 -1
ATTRIBUTES 031a
BITMAP
0100
ff00
0480
0480
0440
0840
1040
1040
2080
4180
fe00
8000
ENDCHAR
STARTCHAR e
ENCODING 101
SWIDTH 790 0
DWIDTH 14 0
BBX 10 12 2 -1
ATTRIBUTES 031a
BITMAP
0080
3fc0
4100
8200
8400
8400
4800
3fc0
1000
2000
ffc0
4000
ENDCHAR
STARTCHAR f
ENCODING 102
SWIDTH 790 0
DWIDTH 14 0
BBX 10 12 2 -1
ATTRIBUTES 031a
BITMAP
0100
ff80
02c0
0240
0440
0840
0880
ff00
1000
2000
ffc0
4000
ENDCHAR
STARTCHAR g
ENCODING 103
SWIDTH 734 0
DWIDTH 13 0
BBX 10 10 0 0
ATTRIBUTES 02c8
BITMAP
1fc0
6000
4000
c000
8000
ffc0
c000
4000
3000
1fc0
ENDCHAR
STARTCHAR h
ENCODING 104
SWIDTH 734 0
DWIDTH 13 0
BBX 10 14 0 -2
ATTRIBUTES 02c8
BITMAP
0080
0080
1fc0
6300
4200
c600
8400
ffc0
8800
5000
3000
3fc0
6000
4000
ENDCHAR
STARTCHAR i
ENCODING 105
SWIDTH 734 0
DWIDTH 13 0
BBX 10 10 0 0
ATTRIBUTES 02c8
BITMAP
1fc0
6000
4000
c000
8000
ffc0
c000
4000
3000
1fc0
ENDCHAR
STARTCHAR j
ENCODING 106
SWIDTH 564 0
DWIDTH 10 0
BBX 8 12 0 0
ATTRIBUTES 0224
BITMAP
ff
01
01
01
01
7f
01
01
01
01
01
ff
ENDCHAR
STARTCHAR k
ENCODING 107
SWIDTH 451 0
DWIDTH 8 0
BBX 7 8 0 0
ATTRIBUTES 01b6
BITMAP
f8
1c
06
06
7e
06
0c
f0
ENDCHAR
STARTCHAR l
ENCODING 108
SWIDTH 847 0
DWIDTH 15 0
BBX 11 12 0 0
ATTRIBUTES 0336
BITMAP
8080
c080
c0c0
70e0
3920
5d00
4600
8300
c1c0
60c0
7040
6040
ENDCHAR
STARTCHAR m
ENCODING 109
SWIDTH 677 0
DWIDTH 12 0
BBX 11 13 0 -1
ATTRIBUTES 02ae
BITMAP
3e20
67c0
4000
4040
0080
0180
00c0
00c0
0040
0040
7840
1cc0
0f00
ENDCHAR
STARTCHAR n
ENCODING 110
SWIDTH 790 0
DWIDTH 14 0
BBX 13 12 0 0
ATTRIBUTES 031a
BITMAP
38e0
4730
8630
8630
6620
27c0
2660
2660
0660
0660
6c60
3070
ENDCHAR
STARTCHAR o
ENCODING 111
SWIDTH 960 0
DWIDTH 17 0
BBX 12 13 0 -4
ATTRIBUTES 03da
BITMAP
1800
11e0
2230
2430
4830
7030
6660
64c0
7700
5000
9000
9000
6000
ENDCHAR
STARTCHAR p
ENCODING 112
SWIDTH 508 0
DWIDTH 9 0
BBX 9 16 0 -4
ATTRIBUTES 01f4
BITMAP
0380
0200
0400
0400
1f00
0c00
0c00
0800
0800
1800
1800
1000
1000
1000
a000
c000
ENDCHAR
STARTCHAR q
ENCODING 113
SWIDTH 790 0
DWIDTH 14 0
BBX 10 13 2 -3
ATTRIBUTES 031a
BITMAP
0040
0080
0100
1200
0c00
0c00
1a00
3200
6200
ffc0
0200
0200
0200
ENDCHAR
STARTCHAR r
ENCODING 114
SWIDTH 790 0
DWIDTH 14 0
BBX 10 11 2 0
ATTRIBUTES 031a
BITMAP
0400
0600
02c0
0700
1d00
6100
3100
0f00
0380
0240
0400
ENDCHAR
STARTCHAR s
ENCODING 115
SWIDTH 395 0
DWIDTH 7 0
BBX 1 17 3 -3
ATTRIBUTES 018d
BITMAP
80
80
80
80
80
80
80
80
80
80
80
80
80
80
80
80
80
ENDCHAR
STARTCHAR t
ENCODING 116
SWIDTH 564 0
DWIDTH 10 0
BBX 5 17 3 -3
ATTRIBUTES 0242
BITMAP
88
88
88
88
88
88
88
88
88
88
88
88
88
88
88
88
88
ENDCHAR
STARTCHAR u
ENCODING 117
SWIDTH 677 0
DWIDTH 12 0
BBX 11 12 0 0
ATTRIBUTES 0292
BITMAP
0400
0400
0400
0400
0400
0400
0400
0400
0400
0400
0400
ffe0
ENDCHAR
STARTCHAR v
ENCODING 118
SWIDTH 1016 0
DWIDTH 18 0
BBX 14 2 0 0
ATTRIBUTES 03e8
BITMAP
8204
c30c
ENDCHAR
STARTCHAR w
ENCODING 119
SWIDTH 1016 0
DWIDTH 18 0
BBX 14 2 0 5
ATTRIBUTES 03e8
BITMAP
4104
c30c
ENDCHAR
STARTCHAR x
ENCODING 120
SWIDTH 1016 0
DWIDTH 18 0
BBX 2 13 6 -1
ATTRIBUTES 03e8
BITMAP
c0
00
00
00
00
00
c0
00
00
00
00
00
c0
ENDCHAR
STARTCHAR y
ENCODING 121
SWIDTH 1016 0
DWIDTH 18 0
BBX 10 11 2 0
ATTRIBUTES 03e8
BITMAP
00c0
00c0
0000
0000
0400
0c00
0000
0000
0000
c000
8000
ENDCHAR
STARTCHAR z
ENCODING 122
SWIDTH 1016 0
DWIDTH 18 0
BBX 10 11 2 0
ATTRIBUTES 03e8
BITMAP
8000
c000
0000
0000
0000
0c00
0000
0000
0000
00c0
00c0
ENDCHAR
STARTCHAR braceleft
ENCODING 123
SWIDTH 903 0
DWIDTH 16 0
BBX 12 5 2 3
ATTRIBUTES 0388
BITMAP
2020
f0f0
9ff0
b0f0
4020
ENDCHAR
STARTCHAR bar
ENCODING 124
SWIDTH 903 0
DWIDTH 16 0
BBX 12 5 2 3
ATTRIBUTES 0388
BITMAP
2020
f0f0
ff90
f0b0
2040
ENDCHAR
STARTCHAR braceright
ENCODING 125
SWIDTH 677 0
DWIDTH 12 0
BBX 13 3 0 4
ATTRIBUTES 02bb
BITMAP
0010
fff8
0010
ENDCHAR
STARTCHAR asciitilde
ENCODING 126
SWIDTH 508 0
DWIDTH 9 0
BBX 9 9 0 0
ATTRIBUTES 01f5
BITMAP
ff80
8080
8080
8080
8080
8080
8080
8080
ff80
ENDCHAR
STARTCHAR C000177
ENCODING 127
SWIDTH 508 0
DWIDTH 9 0
BBX 9 9 0 0
ATTRIBUTES 01f5
BITMAP
ff80
8080
8080
8080
8080
8080
8080
8080
ff80
ENDCHAR
STARTCHAR C000200
ENCODING 128
SWIDTH 564 0
DWIDTH 10 0
BBX 6 17 2 -3
ATTRIBUTES 0242
BITMAP
0c
14
10
30
30
30
30
30
30
30
30
30
30
30
20
a0
c0
ENDCHAR
STARTCHAR C000201
ENCODING 129
SWIDTH 847 0
DWIDTH 15 0
BBX 11 17 2 -3
ATTRIBUTES 0356
BITMAP
0c60
14a0
1180
3180
3180
3180
3180
3180
3180
3180
3180
3180
3180
3180
2100
a500
c700
ENDCHAR
STARTCHAR C000202
ENCODING 130
SWIDTH 1129 0
DWIDTH 20 0
BBX 16 17 2 -3
ATTRIBUTES 046c
BITMAP
0c63
14a5
1184
318c
318c
318c
318c
318c
318c
318c
318c
318c
318c
318c
2108
a528
c730
ENDCHAR
STARTCHAR C000203
ENCODING 131
SWIDTH 621 0
DWIDTH 11 0
BBX 7 17 2 -3
ATTRIBUTES 0265
BITMAP
0c
0c
18
18
38
5c
de
9a
9a
de
7c
38
18
18
10
50
60
ENDCHAR
STARTCHAR C000204
ENCODING 132
SWIDTH 903 0
DWIDTH 16 0
BBX 12 17 2 -3
ATTRIBUTES 037b
BITMAP
0c60
0ee0
18c0
18c0
1fc0
78c0
d8e0
98d0
98d0
d8e0
78c0
1fc0
18c0
18c0
1080
5680
6300
ENDCHAR
STARTCHAR C000205
ENCODING 133
SWIDTH 1185 0
DWIDTH 21 0
BBX 17 17 2 -3
ATTRIBUTES 048f
BITMAP
0c6300
0e7300
18c600
18c600
1ffe00
38ce00
58c700
98c680
98c680
58c700
3cc600
1ffe00
18c600
18c600
108400
56b400
631800
ENDCHAR
STARTCHAR C000206
ENCODING 134
SWIDTH 508 0
DWIDTH 9 0
BBX 9 15 1 0
ATTRIBUTES 0215
BITMAP
0080
0080
0080
0100
0100
0100
0200
0200
2200
e200
2400
1400
1400
0c00
0800
ENDCHAR
STARTCHAR C000207
ENCODING 135
SWIDTH 508 0
DWIDTH 9 0
BBX 9 15 1 0
ATTRIBUTES 0215
BITMAP
0080
0080
0080
0100
0100
0100
0100
0200
2200
2200
2200
1400
1400
0c00
0400
ENDCHAR
STARTCHAR C000210
ENCODING 136
SWIDTH 508 0
DWIDTH 9 0
BBX 9 14 0 0
ATTRIBUTES 0202
BITMAP
0080
0080
0100
0100
4100
4200
2200
2200
2200
1400
1400
1400
0800
0800
ENDCHAR
STARTCHAR C000211
ENCODING 137
SWIDTH 395 0
DWIDTH 7 0
BBX 4 15 1 0
ATTRIBUTES 0196
BITMAP
10
10
10
10
10
10
10
10
10
90
50
50
30
30
10
ENDCHAR
STARTCHAR C000212
ENCODING 138
SWIDTH 847 0
DWIDTH 15 0
BBX 14 16 0 -2
ATTRIBUTES 0336
BITMAP
fcfc
3030
3030
3030
3030
3030
3030
3030
3030
3030
3030
3030
3030
3030
3030
7ff8
ENDCHAR
STARTCHAR C000213
ENCODING 139
SWIDTH 847 0
DWIDTH 15 0
BBX 14 15 0 -2
ATTRIBUTES 0336
BITMAP
7ff8
3030
3030
3030
3030
3030
3030
3030
3030
3030
3030
3030
3030
3030
fcfc
ENDCHAR
STARTCHAR C000214
ENCODING 140
SWIDTH 734 0
DWIDTH 13 0
BBX 12 15 0 -2
ATTRIBUTES 02c8
BITMAP
ffe0
6020
3020
1800
1800
0c00
0600
0200
0400
0800
1000
2010
2010
7ff0
fff0
ENDCHAR
STARTCHAR C000215
ENCODING 141
SWIDTH 790 0
DWIDTH 14 0
BBX 15 16 0 -2
ATTRIBUTES 0334
BITMAP
fffe
6004
6004
3008
3008
3810
1810
1c20
0c20
0e40
0640
0680
0780
0300
0300
0100
ENDCHAR
STARTCHAR C000216
ENCODING 142
SWIDTH 847 0
DWIDTH 15 0
BBX 16 16 -1 -1
ATTRIBUTES 0340
BITMAP
c003
6006
6006
300c
3ffc
3ffc
1808
1818
0c10
0c10
0620
0620
0660
0340
03c0
0180
ENDCHAR
STARTCHAR C000217
ENCODING 143
SWIDTH 1637 0
DWIDTH 29 0
BBX 29 15 1 0
ATTRIBUTES 06a3
BITMAP
e0c00000
60c00000
60000000
60000000
60000000
60c379e0
63cf9e70
60c30c30
60c30c30
60c30c30
60c30c30
60c30c30
60c30c30
60c30c30
f1e79e78
ENDCHAR
STARTCHAR C000220
ENCODING 144
SWIDTH 338 0
DWIDTH 6 0
BBX 5 3 0 10
ATTRIBUTES 014c
BITMAP
70
d0
88
ENDCHAR
STARTCHAR C000221
ENCODING 145
SWIDTH 338 0
DWIDTH 6 0
BBX 5 3 0 10
ATTRIBUTES 014c
BITMAP
88
50
70
ENDCHAR
STARTCHAR C000222
ENCODING 146
SWIDTH 338 0
DWIDTH 6 0
BBX 5 3 0 10
ATTRIBUTES 014c
BITMAP
88
50
20
ENDCHAR
STARTCHAR C000223
ENCODING 147
SWIDTH 338 0
DWIDTH 6 0
BBX 3 3 2 10
ATTRIBUTES 014c
BITMAP
60
40
80
ENDCHAR
STARTCHAR C000224
ENCODING 148
SWIDTH 338 0
DWIDTH 6 0
BBX 3 3 1 10
ATTRIBUTES 014c
BITMAP
c0
60
20
ENDCHAR
STARTCHAR C000225
ENCODING 149
SWIDTH 338 0
DWIDTH 6 0
BBX 6 2 0 11
ATTRIBUTES 014c
BITMAP
e4
bc
ENDCHAR
STARTCHAR C000226
ENCODING 150
SWIDTH 508 0
DWIDTH 9 0
BBX 9 1 0 12
ATTRIBUTES 01f4
BITMAP
ff80
ENDCHAR
STARTCHAR C000227
ENCODING 151
SWIDTH 508 0
DWIDTH 9 0
BBX 9 3 0 11
ATTRIBUTES 01f4
BITMAP
0100
ff80
0100
ENDCHAR
STARTCHAR C000230
ENCODING 152
SWIDTH 282 0
DWIDTH 5 0
BBX 2 2 1 11
ATTRIBUTES 0108
BITMAP
c0
c0
ENDCHAR
STARTCHAR C000231
ENCODING 153
SWIDTH 282 0
DWIDTH 5 0
BBX 4 2 0 11
ATTRIBUTES 0108
BITMAP
d0
d0
ENDCHAR
STARTCHAR C000232
ENCODING 154
SWIDTH 395 0
DWIDTH 7 0
BBX 7 2 0 11
ATTRIBUTES 01a3
BITMAP
d2
d2
ENDCHAR
STARTCHAR C000233
ENCODING 155
SWIDTH 282 0
DWIDTH 5 0
BBX 4 4 0 9
ATTRIBUTES 0103
BITMAP
e0
90
90
60
ENDCHAR
STARTCHAR C000234
ENCODING 156
SWIDTH 790 0
DWIDTH 14 0
BBX 10 10 2 0
ATTRIBUTES 031a
BITMAP
0400
0c00
0a00
1200
1100
2100
2080
4080
4040
8040
ENDCHAR
STARTCHAR C000235
ENCODING 157
SWIDTH 790 0
DWIDTH 14 0
BBX 10 10 2 0
ATTRIBUTES 031a
BITMAP
8040
4080
4080
2100
2100
1200
1200
0c00
0c00
0400
ENDCHAR
STARTCHAR C000236
ENCODING 158
SWIDTH 508 0
DWIDTH 9 0
BBX 9 9 0 0
ATTRIBUTES 01f5
BITMAP
ff80
8080
8080
8080
8080
8080
8080
8080
ff80
ENDCHAR
STARTCHAR C000237
ENCODING 159
SWIDTH 508 0
DWIDTH 9 0
BBX 9 9 0 0
ATTRIBUTES 01f5
BITMAP
ff80
8080
8080
8080
8080
8080
8080
8080
ff80
ENDCHAR
STARTCHAR nobreakspace
ENCODING 160
SWIDTH 395 0
DWIDTH 7 0
BBX 4 20 1 -4
ATTRIBUTES 017e
BITMAP
00
40
40
40
40
40
20
20
20
c0
20
20
20
20
40
40
40
40
40
30
ENDCHAR
STARTCHAR exclamdown
ENCODING 161
SWIDTH 395 0
DWIDTH 7 0
BBX 4 20 0 -4
ATTRIBUTES 017e
BITMAP
00
20
20
20
20
20
40
40
40
30
20
40
40
40
20
20
20
20
60
80
ENDCHAR
STARTCHAR cent
ENCODING 162
SWIDTH 338 0
DWIDTH 6 0
BBX 3 18 1 -3
ATTRIBUTES 0137
BITMAP
20
20
20
40
40
80
80
80
80
80
80
80
80
40
40
20
20
20
ENDCHAR
STARTCHAR sterling
ENCODING 163
SWIDTH 338 0
DWIDTH 6 0
BBX 3 18 1 -3
ATTRIBUTES 0137
BITMAP
80
80
40
40
40
20
20
20
20
20
20
20
20
40
40
40
80
80
ENDCHAR
STARTCHAR currency
ENCODING 164
SWIDTH 338 0
DWIDTH 6 0
BBX 5 17 1 -2
ATTRIBUTES 014f
BITMAP
08
08
10
10
20
20
40
80
80
40
40
20
20
10
10
08
08
ENDCHAR
STARTCHAR yen
ENCODING 165
SWIDTH 338 0
DWIDTH 6 0
BBX 5 17 0 -2
ATTRIBUTES 014f
BITMAP
80
40
40
20
20
10
10
08
08
08
10
10
20
20
40
40
80
ENDCHAR
STARTCHAR brokenbar
ENCODING 166
SWIDTH 282 0
DWIDTH 5 0
BBX 3 18 1 -3
ATTRIBUTES 0119
BITMAP
e0
80
80
80
80
80
80
80
80
80
80
80
80
80
80
80
80
e0
ENDCHAR
STARTCHAR section
ENCODING 167
SWIDTH 282 0
DWIDTH 5 0
BBX 3 18 1 -3
ATTRIBUTES 0119
BITMAP
e0
20
20
20
20
20
20
20
20
20
20
20
20
20
20
20
20
e0
ENDCHAR
STARTCHAR diaeresis
ENCODING 168
SWIDTH 338 0
DWIDTH 6 0
BBX 3 8 3 0
ATTRIBUTES 0157
BITMAP
60
80
80
80
80
80
80
80
ENDCHAR
STARTCHAR copyright
ENCODING 169
SWIDTH 338 0
DWIDTH 6 0
BBX 3 15 1 0
ATTRIBUTES 0157
BITMAP
20
20
20
20
20
20
20
c0
20
20
20
20
20
20
20
ENDCHAR
STARTCHAR ordfeminine
ENCODING 170
SWIDTH 338 0
DWIDTH 6 0
BBX 3 8 3 0
ATTRIBUTES 0157
BITMAP
80
80
80
80
80
80
40
60
ENDCHAR
STARTCHAR guillemotleft
ENCODING 171
SWIDTH 338 0
DWIDTH 6 0
BBX 3 8 1 0
ATTRIBUTES 0157
BITMAP
c0
20
20
20
20
20
20
20
ENDCHAR
STARTCHAR notsign
ENCODING 172
SWIDTH 338 0
DWIDTH 6 0
BBX 3 15 3 0
ATTRIBUTES 0157
BITMAP
80
80
80
80
80
80
80
60
80
80
80
80
80
80
80
ENDCHAR
STARTCHAR hyphen
ENCODING 173
SWIDTH 338 0
DWIDTH 6 0
BBX 3 8 1 0
ATTRIBUTES 0157
BITMAP
20
20
20
20
20
20
20
c0
ENDCHAR
STARTCHAR registered
ENCODING 174
SWIDTH 338 0
DWIDTH 6 0
BBX 1 7 3 0
ATTRIBUTES 0157
BITMAP
80
80
80
80
80
80
80
ENDCHAR
STARTCHAR macron
ENCODING 175
SWIDTH 395 0
DWIDTH 7 0
BBX 4 15 2 0
ATTRIBUTES 018d
BITMAP
10
10
20
20
20
40
40
40
40
80
80
80
80
80
80
ENDCHAR
STARTCHAR degree
ENCODING 176
SWIDTH 395 0
DWIDTH 7 0
BBX 1 7 2 0
ATTRIBUTES 018d
BITMAP
80
80
80
80
80
80
80
ENDCHAR
STARTCHAR plusminus
ENCODING 177
SWIDTH 395 0
DWIDTH 7 0
BBX 4 15 2 0
ATTRIBUTES 018d
BITMAP
80
80
80
80
80
80
80
40
40
40
40
20
20
10
10
ENDCHAR
STARTCHAR twosuperior
ENCODING 178
SWIDTH 395 0
DWIDTH 7 0
BBX 4 15 1 0
ATTRIBUTES 018d
BITMAP
80
80
40
40
20
20
20
20
10
10
10
10
10
10
10
ENDCHAR
STARTCHAR threesuperior
ENCODING 179
SWIDTH 395 0
DWIDTH 7 0
BBX 1 7 4 0
ATTRIBUTES 018d
BITMAP
80
80
80
80
80
80
80
ENDCHAR
STARTCHAR acute
ENCODING 180
SWIDTH 395 0
DWIDTH 7 0
BBX 4 15 1 0
ATTRIBUTES 018d
BITMAP
10
10
10
10
10
10
10
20
20
20
20
20
40
80
80
ENDCHAR
STARTCHAR mu
ENCODING 181
SWIDTH 338 0
DWIDTH 6 0
BBX 4 15 2 0
ATTRIBUTES 0169
BITMAP
f0
80
80
80
80
80
80
80
80
80
80
80
80
80
80
ENDCHAR
STARTCHAR paragraph
ENCODING 182
SWIDTH 338 0
DWIDTH 6 0
BBX 1 7 2 0
ATTRIBUTES 0169
BITMAP
80
80
80
80
80
80
80
ENDCHAR
STARTCHAR periodcentered
ENCODING 183
SWIDTH 338 0
DWIDTH 6 0
BBX 4 15 2 0
ATTRIBUTES 0169
BITMAP
80
80
80
80
80
80
80
80
80
80
80
80
80
80
f0
ENDCHAR
STARTCHAR cedilla
ENCODING 184
SWIDTH 338 0
DWIDTH 6 0
BBX 4 15 0 0
ATTRIBUTES 0169
BITMAP
f0
10
10
10
10
10
10
10
10
10
10
10
10
10
10
ENDCHAR
STARTCHAR onesuperior
ENCODING 185
SWIDTH 338 0
DWIDTH 6 0
BBX 1 7 3 0
ATTRIBUTES 0169
BITMAP
80
80
80
80
80
80
80
ENDCHAR
STARTCHAR masculine
ENCODING 186
SWIDTH 338 0
DWIDTH 6 0
BBX 4 15 0 0
ATTRIBUTES 0169
BITMAP
10
10
10
10
10
10
10
10
10
10
10
10
10
10
f0
ENDCHAR
STARTCHAR guillemotright
ENCODING 187
SWIDTH 508 0
DWIDTH 9 0
BBX 9 9 0 0
ATTRIBUTES 01f5
BITMAP
ff80
8080
8080
8080
8080
8080
8080
8080
ff80
ENDCHAR
STARTCHAR onequarter
ENCODING 188
SWIDTH 338 0
DWIDTH 6 0
BBX 1 7 3 0
ATTRIBUTES 0169
BITMAP
80
80
80
80
80
80
80
ENDCHAR
STARTCHAR onehalf
ENCODING 189
SWIDTH 451 0
DWIDTH 8 0
BBX 7 19 0 -5
ATTRIBUTES 01b2
BITMAP
02
02
02
04
04
04
08
08
08
10
10
20
20
20
40
40
40
80
80
ENDCHAR
STARTCHAR threequarters
ENCODING 190
SWIDTH 451 0
DWIDTH 8 0
BBX 7 19 0 -5
ATTRIBUTES 01b2
BITMAP
80
80
80
40
40
20
20
20
10
10
10
08
08
08
04
04
04
02
02
ENDCHAR
STARTCHAR questiondown
ENCODING 191
SWIDTH 903 0
DWIDTH 16 0
BBX 14 13 1 0
ATTRIBUTES 037b
BITMAP
fff8
801c
801c
801c
801c
801c
801c
801c
801c
801c
fffc
fffc
7ffc
ENDCHAR
STARTCHAR Agrave
ENCODING 192
SWIDTH 282 0
DWIDTH 5 0
BBX 3 18 1 -3
ATTRIBUTES 0119
BITMAP
e0
80
80
80
80
80
80
80
80
80
80
80
80
80
80
80
80
80
ENDCHAR
STARTCHAR Aacute
ENCODING 193
SWIDTH 282 0
DWIDTH 5 0
BBX 3 18 1 -3
ATTRIBUTES 0119
BITMAP
80
80
80
80
80
80
80
80
80
80
80
80
80
80
80
80
80
e0
ENDCHAR
STARTCHAR Acircumflex
ENCODING 194
SWIDTH 282 0
DWIDTH 5 0
BBX 3 18 1 -3
ATTRIBUTES 0119
BITMAP
e0
20
20
20
20
20
20
20
20
20
20
20
20
20
20
20
20
20
ENDCHAR
STARTCHAR Atilde
ENCODING 195
SWIDTH 282 0
DWIDTH 5 0
BBX 3 18 1 -3
ATTRIBUTES 0119
BITMAP
20
20
20
20
20
20
20
20
20
20
20
20
20
20
20
20
20
e0
ENDCHAR
STARTCHAR Adiaeresis
ENCODING 196
SWIDTH 508 0
DWIDTH 9 0
BBX 9 9 0 0
ATTRIBUTES 01f5
BITMAP
ff80
8080
8080
8080
8080
8080
8080
8080
ff80
ENDCHAR
STARTCHAR Aring
ENCODING 197
SWIDTH 395 0
DWIDTH 7 0
BBX 1 7 4 0
ATTRIBUTES 0196
BITMAP
80
80
80
80
80
80
80
ENDCHAR
STARTCHAR AE
ENCODING 198
SWIDTH 621 0
DWIDTH 11 0
BBX 11 13 0 0
ATTRIBUTES 027e
BITMAP
3fe0
0c20
0800
1800
1800
1800
1800
1000
3000
3000
3000
3000
f800
ENDCHAR
STARTCHAR Ccedilla
ENCODING 199
SWIDTH 790 0
DWIDTH 14 0
BBX 12 13 1 0
ATTRIBUTES 0318
BITMAP
0080
0180
0380
05c0
04c0
08c0
10c0
10e0
2060
4060
4070
8030
fff0
ENDCHAR
STARTCHAR Egrave
ENCODING 200
SWIDTH 847 0
DWIDTH 15 0
BBX 13 14 1 0
ATTRIBUTES 0340
BITMAP
03c0
0c70
1830
3018
6018
6898
c898
cf98
c8b0
c030
c060
60c0
7180
1e00
ENDCHAR
STARTCHAR Eacute
ENCODING 201
SWIDTH 847 0
DWIDTH 15 0
BBX 14 13 0 0
ATTRIBUTES 0338
BITMAP
0040
00c0
0160
0160
0260
0260
0460
0830
0830
1030
2030
2018
f07c
ENDCHAR
STARTCHAR Ecircumflex
ENCODING 202
SWIDTH 734 0
DWIDTH 13 0
BBX 12 13 0 0
ATTRIBUTES 02cc
BITMAP
1ff0
1010
1010
0000
1020
1020
1fe0
1040
0040
0020
4020
ffe0
ffe0
ENDCHAR
STARTCHAR Ediaeresis
ENCODING 203
SWIDTH 847 0
DWIDTH 15 0
BBX 16 13 0 0
ATTRIBUTES 0369
BITMAP
1fff
0c0c
0c0c
0c0c
180c
1818
1818
1818
3018
3010
3030
3030
f8f8
ENDCHAR
STARTCHAR Igrave
ENCODING 204
SWIDTH 734 0
DWIDTH 13 0
BBX 13 13 0 0
ATTRIBUTES 02ce
BITMAP
1ff8
1c08
0c00
0600
0700
0380
0180
0200
0400
1800
2020
4020
ffe0
ENDCHAR
STARTCHAR Iacute
ENCODING 205
SWIDTH 677 0
DWIDTH 12 0
BBX 11 13 2 0
ATTRIBUTES 02bd
BITMAP
c060
7080
3100
3900
1a00
1c00
1c00
1800
1800
1800
1000
3000
f800
ENDCHAR
STARTCHAR Icircumflex
ENCODING 206
SWIDTH 734 0
DWIDTH 13 0
BBX 12 13 1 0
ATTRIBUTES 02ea
BITMAP
07c0
0300
0300
1ee0
6630
c630
c630
c630
c460
7f80
0c00
0c00
3e00
ENDCHAR
STARTCHAR Idiaeresis
ENCODING 207
SWIDTH 790 0
DWIDTH 14 0
BBX 13 13 1 0
ATTRIBUTES 0322
BITMAP
cf98
6330
6620
6660
6640
66c0
1f00
0c00
0c00
0c00
0c00
1c00
3e00
ENDCHAR
STARTCHAR ETH
ENCODING 208
SWIDTH 903 0
DWIDTH 16 0
BBX 15 14 0 0
ATTRIBUTES 0379
BITMAP
01f0
061c
0c0c
1806
1806
3006
3006
300c
300c
1008
1810
4824
4444
7c7c
ENDCHAR
STARTCHAR Ntilde
ENCODING 209
SWIDTH 847 0
DWIDTH 15 0
BBX 11 10 2 0
ATTRIBUTES 0343
BITMAP
0c20
1660
2360
6340
c180
c180
c180
c2c0
ecc0
7060
ENDCHAR
STARTCHAR Ograve
ENCODING 210
SWIDTH 677 0
DWIDTH 12 0
BBX 10 17 1 -3
ATTRIBUTES 02a5
BITMAP
0780
0cc0
18c0
18c0
1880
3300
3600
3380
3180
60c0
6080
6080
7100
7e00
c000
c000
c000
ENDCHAR
STARTCHAR Oacute
ENCODING 211
SWIDTH 677 0
DWIDTH 12 0
BBX 11 14 1 -4
ATTRIBUTES 02b2
BITMAP
4060
f060
3040
18c0
1880
1900
0d00
0e00
0c00
3c00
4c00
4c00
9800
7000
ENDCHAR
STARTCHAR Ocircumflex
ENCODING 212
SWIDTH 677 0
DWIDTH 12 0
BBX 10 14 1 0
ATTRIBUTES 0290
BITMAP
0f80
0880
1800
0c00
0600
1f00
3300
6180
e180
c180
c180
c300
6600
3c00
ENDCHAR
STARTCHAR Otilde
ENCODING 213
SWIDTH 564 0
DWIDTH 10 0
BBX 8 10 1 0
ATTRIBUTES 021e
BITMAP
0f
30
60
60
c0
fe
c0
c0
61
3e
ENDCHAR
STARTCHAR Odiaeresis
ENCODING 214
SWIDTH 677 0
DWIDTH 12 0
BBX 11 18 2 -4
ATTRIBUTES 02ae
BITMAP
00c0
c3c0
7f00
0800
1000
3000
6000
6000
4000
c000
c000
e000
ff00
3f80
0080
0080
1100
3e00
ENDCHAR
STARTCHAR multiply
ENCODING 215
SWIDTH 677 0
DWIDTH 12 0
BBX 9 13 2 -3
ATTRIBUTES 02ac
BITMAP
6700
6980
7180
6180
6180
6180
4100
c300
c300
c300
0300
0200
0600
ENDCHAR
STARTCHAR Ooblique
ENCODING 216
SWIDTH 734 0
DWIDTH 13 0
BBX 9 14 2 0
ATTRIBUTES 02d0
BITMAP
0f00
1300
1180
2180
6180
4180
4180
ff80
c100
c100
c200
c200
6c00
7000
ENDCHAR
STARTCHAR Ugrave
ENCODING 217
SWIDTH 395 0
DWIDTH 7 0
BBX 4 10 2 0
ATTRIBUTES 0191
BITMAP
60
60
60
40
c0
c0
c0
c0
c0
70
ENDCHAR
STARTCHAR Uacute
ENCODING 218
SWIDTH 677 0
DWIDTH 12 0
BBX 10 10 1 0
ATTRIBUTES 028e
BITMAP
30c0
21c0
6200
6400
6800
7c00
6600
c600
c300
c300
ENDCHAR
STARTCHAR Ucircumflex
ENCODING 219
SWIDTH 677 0
DWIDTH 12 0
BBX 10 14 1 0
ATTRIBUTES 02b2
BITMAP
3000
1800
0c00
0c00
0400
0600
0e00
1600
2200
2300
4300
4300
c180
c1c0
ENDCHAR
STARTCHAR Udiaeresis
ENCODING 220
SWIDTH 677 0
DWIDTH 12 0
BBX 10 13 1 -3
ATTRIBUTES 02b4
BITMAP
30c0
30c0
30c0
3080
2080
2180
6180
6180
6380
7d80
4000
c000
c000
ENDCHAR
STARTCHAR Yacute
ENCODING 221
SWIDTH 677 0
DWIDTH 12 0
BBX 10 10 1 0
ATTRIBUTES 02b2
BITMAP
40c0
e0c0
3080
3080
3100
1100
1a00
1c00
1800
1000
ENDCHAR
STARTCHAR THORN
ENCODING 222
SWIDTH 621 0
DWIDTH 11 0
BBX 9 18 2 -4
ATTRIBUTES 027f
BITMAP
8f00
7e00
3000
2000
2000
3000
1f00
1000
6000
4000
c000
c000
7c00
3e00
0200
0200
2400
7800
ENDCHAR
STARTCHAR ssharp
ENCODING 223
SWIDTH 621 0
DWIDTH 11 0
BBX 10 10 1 0
ATTRIBUTES 0289
BITMAP
0f00
3180
60c0
60c0
c0c0
c0c0
c180
c180
6300
3c00
ENDCHAR
STARTCHAR agrave
ENCODING 224
SWIDTH 847 0
DWIDTH 15 0
BBX 14 9 1 0
ATTRIBUTES 0354
BITMAP
7ffc
9860
1060
10c0
30c0
30c0
30c0
20c0
6060
ENDCHAR
STARTCHAR aacute
ENCODING 225
SWIDTH 677 0
DWIDTH 12 0
BBX 10 13 1 -3
ATTRIBUTES 0294
BITMAP
0780
19c0
10c0
20c0
20c0
6080
6180
4100
6200
7c00
c000
c000
c000
ENDCHAR
STARTCHAR acircumflex
ENCODING 226
SWIDTH 790 0
DWIDTH 14 0
BBX 13 10 1 0
ATTRIBUTES 0306
BITMAP
0e00
11f8
20c0
40c0
c0c0
c0c0
c180
c380
6300
3c00
ENDCHAR
STARTCHAR atilde
ENCODING 227
SWIDTH 677 0
DWIDTH 12 0
BBX 11 9 0 0
ATTRIBUTES 02a3
BITMAP
7fe0
8600
0600
0c00
0c00
0c00
0c00
0c00
0600
ENDCHAR
STARTCHAR adiaeresis
ENCODING 228
SWIDTH 677 0
DWIDTH 12 0
BBX 9 10 1 0
ATTRIBUTES 0292
BITMAP
6180
6080
6080
c080
c080
c080
c100
c100
6600
3800
ENDCHAR
STARTCHAR aring
ENCODING 229
SWIDTH 847 0
DWIDTH 15 0
BBX 14 18 1 -4
ATTRIBUTES 036c
BITMAP
00c0
00c0
0080
0180
0180
0fe0
3918
630c
e30c
c30c
c30c
4218
3670
0f80
0600
0600
0400
0c00
ENDCHAR
STARTCHAR ae
ENCODING 230
SWIDTH 677 0
DWIDTH 12 0
BBX 10 13 1 -3
ATTRIBUTES 02bb
BITMAP
20c0
70c0
1880
1980
0900
0e00
0c00
1400
1600
2600
4300
4300
c180
ENDCHAR
STARTCHAR ccedilla
ENCODING 231
SWIDTH 903 0
DWIDTH 16 0
BBX 13 14 2 -3
ATTRIBUTES 038e
BITMAP
0300
6318
6318
6218
c210
c630
c630
c620
c460
64c0
3f00
0c00
0c00
0800
ENDCHAR
STARTCHAR egrave
ENCODING 232
SWIDTH 1016 0
DWIDTH 18 0
BBX 15 10 1 0
ATTRIBUTES 03e4
BITMAP
180c
3086
6186
6182
c102
c302
c306
c384
64c8
3870
ENDCHAR
STARTCHAR eacute
ENCODING 233
SWIDTH 508 0
DWIDTH 9 0
BBX 8 10 1 0
ATTRIBUTES 0217
BITMAP
1f
30
20
30
1e
60
c0
c0
c2
7c
ENDCHAR
STARTCHAR ecircumflex
ENCODING 234
SWIDTH 734 0
DWIDTH 13 0
BBX 11 14 1 0
ATTRIBUTES 02cc
BITMAP
0700
1980
10c0
10c0
20c0
20c0
3fe0
1fe0
0180
0380
c300
6200
3400
1800
ENDCHAR
STARTCHAR ediaeresis
ENCODING 235
SWIDTH 1016 0
DWIDTH 18 0
BBX 17 9 1 0
ATTRIBUTES 03e2
BITMAP
ffff80
900600
30c600
20c200
61c200
618200
618400
33cc00
1cf000
ENDCHAR
STARTCHAR igrave
ENCODING 236
SWIDTH 677 0
DWIDTH 12 0
BBX 9 14 2 -4
ATTRIBUTES 029a
BITMAP
0e00
3300
2180
6180
4180
c100
c300
c200
e400
b800
c000
e000
7e00
3e00
ENDCHAR
STARTCHAR iacute
ENCODING 237
SWIDTH 621 0
DWIDTH 11 0
BBX 10 14 1 -4
ATTRIBUTES 027c
BITMAP
07c0
1880
2000
6000
c000
c000
c000
e000
fe00
3f00
0100
0100
2200
3c00
ENDCHAR
STARTCHAR icircumflex
ENCODING 238
SWIDTH 903 0
DWIDTH 16 0
BBX 15 13 1 -3
ATTRIBUTES 039f
BITMAP
1e38
23c6
6386
c186
c306
c30c
c30c
6318
3360
1f80
0600
0600
0600
ENDCHAR
STARTCHAR idiaeresis
ENCODING 239
SWIDTH 677 0
DWIDTH 12 0
BBX 8 14 2 0
ATTRIBUTES 028e
BITMAP
38
7c
46
03
01
1d
33
21
61
c2
c2
c2
64
38
ENDCHAR
STARTCHAR eth
ENCODING 240
SWIDTH 564 0
DWIDTH 10 0
BBX 10 16 0 0
ATTRIBUTES 024d
BITMAP
0000
0240
0440
0440
0d80
6e00
1800
1800
1800
1000
3000
3100
3100
3200
3400
1800
ENDCHAR
STARTCHAR ntilde
ENCODING 241
SWIDTH 338 0
DWIDTH 6 0
BBX 4 10 1 0
ATTRIBUTES 0151
BITMAP
f0
30
30
60
60
60
60
40
c0
f0
ENDCHAR
STARTCHAR ograve
ENCODING 242
SWIDTH 395 0
DWIDTH 7 0
BBX 8 14 -2 -4
ATTRIBUTES 0187
BITMAP
07
03
03
02
06
06
06
06
04
04
0c
88
98
f0
ENDCHAR
STARTCHAR oacute
ENCODING 243
SWIDTH 734 0
DWIDTH 13 0
BBX 12 15 0 -4
ATTRIBUTES 02d5
BITMAP
0800
1020
11f0
2230
2430
3830
3020
3060
3040
5a80
4b00
4800
9800
9000
7000
ENDCHAR
STARTCHAR ocircumflex
ENCODING 244
SWIDTH 677 0
DWIDTH 12 0
BBX 8 13 2 0
ATTRIBUTES 0298
BITMAP
01
01
01
01
01
01
ff
01
01
01
01
01
ff
ENDCHAR
STARTCHAR otilde
ENCODING 245
SWIDTH 790 0
DWIDTH 14 0
BBX 10 13 2 0
ATTRIBUTES 0300
BITMAP
fc00
8300
0180
0080
0040
0040
8040
8040
8040
8080
8180
8300
fc00
ENDCHAR
STARTCHAR odiaeresis
ENCODING 246
SWIDTH 621 0
DWIDTH 11 0
BBX 9 15 1 -1
ATTRIBUTES 0274
BITMAP
1f80
3180
6080
6000
2000
3000
0c00
3000
6000
c000
c000
c080
e080
7180
1e00
ENDCHAR
STARTCHAR division
ENCODING 247
SWIDTH 847 0
DWIDTH 15 0
BBX 13 13 1 0
ATTRIBUTES 036c
BITMAP
fcf8
c848
9848
1020
3030
2018
6018
6018
6018
7038
3030
1860
0780
ENDCHAR
STARTCHAR oslash
ENCODING 248
SWIDTH 790 0
DWIDTH 14 0
BBX 13 16 1 -6
ATTRIBUTES 0304
BITMAP
0ec0
19c0
31c0
7180
6180
6188
6390
37a0
1dc0
0700
3b00
4300
4200
8600
cc00
7800
ENDCHAR
STARTCHAR ugrave
ENCODING 249
SWIDTH 790 0
DWIDTH 14 0
BBX 14 16 0 0
ATTRIBUTES 032f
BITMAP
0000
0640
0440
0c40
0980
6e00
19c0
1a40
1c40
1c40
1840
3044
30c4
30c8
30d0
2060
ENDCHAR
STARTCHAR uacute
ENCODING 250
SWIDTH 677 0
DWIDTH 12 0
BBX 12 16 0 -6
ATTRIBUTES 02a5
BITMAP
1840
2fc0
2380
0100
0600
0810
1060
3e80
2700
0980
3180
4180
4300
8700
ce00
7800
ENDCHAR
STARTCHAR ucircumflex
ENCODING 251
SWIDTH 564 0
DWIDTH 10 0
BBX 11 14 0 0
ATTRIBUTES 0253
BITMAP
6000
3000
1b00
1c00
3c00
2c00
1600
1600
2300
6300
4180
c180
c0c0
c0c0
ENDCHAR
STARTCHAR udiaeresis
ENCODING 252
SWIDTH 564 0
DWIDTH 10 0
BBX 13 16 0 0
ATTRIBUTES 024d
BITMAP
0000
0240
0440
7ff8
0d80
6e00
1800
1800
1800
1000
3000
3100
3100
3200
3400
1800
ENDCHAR
STARTCHAR yacute
ENCODING 253
SWIDTH 677 0
DWIDTH 12 0
BBX 9 12 2 0
ATTRIBUTES 029b
BITMAP
8000
fc00
ff00
0300
0100
0100
0100
0100
0100
0100
ff80
ff80
ENDCHAR
STARTCHAR thorn
ENCODING 254
SWIDTH 451 0
DWIDTH 8 0
BBX 7 11 1 0
ATTRIBUTES 01ce
BITMAP
40
70
38
08
08
08
0c
14
14
e4
e2
ENDCHAR
STARTCHAR ydiaeresis
ENCODING 255
SWIDTH 621 0
DWIDTH 11 0
BBX 9 12 1 0
ATTRIBUTES 025e
BITMAP
8000
ff80
ff80
0200
0200
0200
0200
0200
0200
0200
0200
0200
ENDCHAR
ENDFONT
